<svg xmlns="http://www.w3.org/2000/svg" viewBox="0 0 16 16"><style>.st0{opacity:0}.st0,.st1{fill:#f6f6f6}.st2{fill:none}.st3{fill:#424242}.st4{fill:#f0eff1}</style><g id="outline"><path class="st0" d="M0 0h16v16H0z"/><path class="st1" d="M16 1H3v5H0v9h13v-5h3z"/></g><g id="icon_x5F_bg"><path class="st2" d="M11 8H2v5h9V8zm-2 3H4v-1h5v1z"/><path class="st3" d="M4 10h5v1H4zM4 2v4h1V3h9v5h-1v1h2V2z"/><path class="st3" d="M1 14h11V7H1v7zm1-6h9v5H2V8zM7 5h5v1H7z"/></g><g id="icon_x5F_fg"><path class="st2" d="M4 10h5v1H4z"/><path class="st4" d="M5 3v3h2V5h5v1h1v2h1V3zM2 13h9V8H2v5zm2-3h5v1H4v-1z"/></g></svg>