<svg xmlns="http://www.w3.org/2000/svg" viewBox="0 0 16 16"><style>.st0{opacity:0}.st0,.st1{fill:#f6f6f6}.st2{fill:#424242}.st3{fill:#00539c}.st4{fill:#f0eff1}</style><g id="outline"><path class="st0" d="M0 0h16v16H0z"/><path class="st1" d="M10.023 1H6.414l-1-1H.586l2 2H0v4h2.586l-2 2H2v5c0 1.299 1.012 2 1.965 2h8c1.442 0 2.007-1.175 2.035-2V4.552L10.023 1z"/></g><path class="st2" d="M9.641 2H7.414l1 1H9v3h3v7H4V8H3v5c0 1 .965 1 .965 1h8c1 0 1.035-1 1.035-1V5L9.641 2z" id="icon_x5F_bg"/><path class="st3" d="M5 1H3l2 2H1v2h4L3 7h2l3-3z" id="color_x5F_action"/><g id="icon_x5F_fg"><path class="st4" d="M9 3h-.586L9 3.586zM9 6V4.414L5.414 8H4v5h8V6z"/></g></svg>