<svg xmlns="http://www.w3.org/2000/svg" viewBox="0 0 16 16"><style>.st0{opacity:0}.st0,.st1{fill:#f6f6f6}.st2{fill:#dcb67a}.st3{fill:#00539c}.st4{fill:#f0eff1}</style><g id="outline"><path class="st0" d="M0 0h16v16H0z"/><path class="st1" d="M14.5 0H6.39l-1 2H2.504C1.677 2 1 2.673 1 3.5v11.914l2-2V16h4v-2.586l2 2V13h5.5c.827 0 1.5-.673 1.5-1.5v-10c0-.827-.673-1.5-1.5-1.5z"/></g><path class="st2" d="M14.5 1H7.008l-1 2H2.504A.503.503 0 0 0 2 3.5v6.082l2.998-2.996 4.002 4V12h5.5a.5.5 0 0 0 .5-.5v-10a.5.5 0 0 0-.5-.5zM14 3H7.508l.5-1H14v1z" id="icon_x5F_bg"/><path class="st3" d="M8 11L5 8l-3 3v2l2-2v4h2v-4l2 2v-2z" id="color_x5F_action"/><path class="st4" d="M14 2v1H7.5L8 2z" id="icon_x5F_fg"/></svg>