<svg xmlns="http://www.w3.org/2000/svg" viewBox="0 0 16 16"><style>.st0{fill:#f6f6f6}.st1{fill:#424242}.st2{fill:#00539c}.st3{fill:#f0eff1}</style><path class="st0" d="M12.061 0H6c-.97 0-2 .701-2 2v5.365c-1.178.562-2 1.75-2 3.135 0 .321.046.639.137.949L0 13.586v.828L1.586 16h.828l2.137-2.137c.309.091.627.137.949.137.079 0 .152-.019.23-.023.09.012.18.024.27.024h8c1.299 0 2-1.031 2-2V3.556L12.061 0z" id="outline"/><path class="st1" d="M11.641 1H5.964S5 1 5 2v5.066c.165-.024.329-.05.5-.05s.335.026.5.05V2h5v3h3v7.001H8.648a3.505 3.505 0 0 1-.708 1h6.024c1 0 1.035-1 1.035-1V4l-3.358-3z" id="icon_x5F_bg"/><path class="st2" d="M5.5 8.016A2.486 2.486 0 0 0 3 10.5c0 .432.12.832.313 1.188L1 14l1 1 2.313-2.313c.354.194.754.313 1.187.313A2.5 2.5 0 0 0 8 10.5a2.486 2.486 0 0 0-2.5-2.484zM5.5 12a1.5 1.5 0 1 1 .001-3.001A1.5 1.5 0 0 1 5.5 12z" id="color_x5F_importance"/><g id="icon_x5F_fg"><circle class="st3" cx="5.5" cy="10.5" r="1.5"/><path class="st3" d="M11 5V2H6v5.066c1.691.244 3 1.683 3 3.434 0 .539-.133 1.044-.352 1.501H14V5h-3z"/></g></svg>