<svg xmlns="http://www.w3.org/2000/svg" width="16" height="16"><style type="text/css">.icon-canvas-transparent{opacity:0;fill:#F6F6F6;} .icon-vs-action-blue{fill:#00539C;} .icon-vs-bg{fill:#424242;} .icon-vs-out{fill:#F6F6F6;}</style><path class="icon-canvas-transparent" d="M16 16h-16v-16h16v16z" id="canvas"/><path class="icon-vs-out" d="M16 4v3h-.992l-1.125 9h-7.766l-1.047-8.373-1.372 1.181-2.099-2.099 1.957-1.715-.494.006h-3.062v-3.485l1.602-1.515h1.398v.349c.499-.261.93-.349 1.503-.349 1.757 0 3.201 1.308 3.446 3h5.051v1h3z" id="outline"/><path class="icon-vs-bg" d="M15 5v1h-8.074c.302-.293.555-.627.732-1h.342v-1h4v1h3zm-1 2l-1 8h-6l-1-8h8zm-1 1h-6l.5 3h5l.5-3z" id="iconBg"/><g id="colorAction"><path class="icon-vs-action-blue" d="M7 3.5c0-1.378-1.12-2.5-2.497-2.5-.593 0-.924.097-1.616.594l-.887.768v-1.362l-1 .945v2.055h2.062l-.032-.031.97-.969h-1.24l.773-.644c.32-.207.614-.356.97-.356.826 0 1.498.673 1.498 1.5 0 .438-.191.854-.53 1.145l-2.409 2.112.688.688 2.378-2.046c.555-.476.872-1.169.872-1.899z"/></g></svg>